<?xml version="1.0" encoding="UTF-8" standalone="no"?>
<svg
   xmlns:dc="http://purl.org/dc/elements/1.1/"
   xmlns:cc="http://creativecommons.org/ns#"
   xmlns:rdf="http://www.w3.org/1999/02/22-rdf-syntax-ns#"
   xmlns:svg="http://www.w3.org/2000/svg"
   xmlns="http://www.w3.org/2000/svg"
   xmlns:sodipodi="http://sodipodi.sourceforge.net/DTD/sodipodi-0.dtd"
   xmlns:inkscape="http://www.inkscape.org/namespaces/inkscape"
   inkscape:export-ydpi="8.4375"
   inkscape:export-xdpi="8.4375"
   inkscape:export-filename="C:\Users\bseremes\Downloads\bs-logo-logo-simple-fcf8ee.png"
   width="180.62222mm"
   height="180.62175mm"
   viewBox="0 0 180.62222 180.62175"
   version="1.1"
   id="svg8"
   inkscape:version="1.0 (4035a4fb49, 2020-05-01)"
   sodipodi:docname="bs-logo-simple.svg">
  <defs
     id="defs2" />
  <sodipodi:namedview
     id="base"
     pagecolor="#ffffff"
     bordercolor="#666666"
     borderopacity="1.0"
     inkscape:pageopacity="0.0"
     inkscape:pageshadow="2"
     inkscape:zoom="0.175"
     inkscape:cx="-215.57539"
     inkscape:cy="246.96104"
     inkscape:document-units="mm"
     inkscape:current-layer="g847"
     inkscape:document-rotation="0"
     showgrid="false"
     fit-margin-top="0"
     fit-margin-left="0"
     fit-margin-right="0"
     fit-margin-bottom="0"
     inkscape:window-width="1920"
     inkscape:window-height="1057"
     inkscape:window-x="-8"
     inkscape:window-y="-8"
     inkscape:window-maximized="1" />
  <metadata
     id="metadata5">
    <rdf:RDF>
      <cc:Work
         rdf:about="">
        <dc:format>image/svg+xml</dc:format>
        <dc:type
           rdf:resource="http://purl.org/dc/dcmitype/StillImage" />
        <dc:title />
      </cc:Work>
    </rdf:RDF>
  </metadata>
  <g
     inkscape:label="Calque 1"
     inkscape:groupmode="layer"
     id="layer1"
     transform="translate(-18.193366,-44.652171)">
    <g
       id="g847"
       transform="matrix(0.35277779,0,0,0.35277779,11.742457,59.367458)">
      <path
         id="path833"
         fill="#48c8ef"
         d="M 410.28604,-41.712622 H 18.286041 V 198.28831 H 410.28604 c 66.17578,0 120,-53.82443 120,-120.000464 0,-66.176039 -53.82422,-120.000468 -120,-120.000468 z m 0,176.000682 H 258.28827 l 8e-5,-112.000432 h 151.99769 c 30.87891,0 56,25.121192 56,56.000218 0,30.879034 -25.12109,56.000214 -56,56.000214 z"
         style="fill:#fcf8ee;fill-opacity:1;stroke:none;stroke-width:0;stroke-miterlimit:4;stroke-dasharray:none"
         sodipodi:nodetypes="sccssssccsss" />
      <path
         id="path835"
         fill="#24b2d3"
         d="M 410.28604,230.28604 H 18.286041 v 240 H 410.28604 c 66.17578,0 120,-53.82422 120,-120 0,-66.17578 -53.82422,-120 -120,-120 z m 0,176 H 258.28831 v -112 h 151.99773 c 30.87891,0 56,25.12109 56,56 0,30.87891 -25.12109,56 -56,56 z"
         style="fill:#fcf8ee;fill-opacity:1;stroke:none;stroke-width:0;stroke-miterlimit:4;stroke-dasharray:none"
         sodipodi:nodetypes="sccssssccsss" />
    </g>
  </g>
</svg>
